# xmcd
#
# Track frame offsets:
#	150
#	17883
#	36055
#	52941
#	71166
#	87715
#	106628
#	122777
#	138077
#	154232
#	170503
#
# Disc length: 2501 seconds
#
# Revision: 0
# Processed by: cddbd v1.5.2PL0 Copyright (c) Steve Scherf et al.
# Submitted via: EZCDAudioConverter 2.1.1.1
#
DISCID=8f09c30b
DTITLE=20 - 레이저나잇
DYEAR=1900
DGENRE=
TTITLE0=라틴러버 - 레이저나잇
TTITLE1=컨트리꼬꼬 - 키스
TTITLE2=채정안 - 테스
TTITLE3=권소영 - 신데렐라의선택
TTITLE4=신철 - 대찬인생
TTITLE5=소찬휘 - 티얼스
TTITLE6=채정안 - 편지
TTITLE7=김민종 - 가까이 가면
TTITLE8=코요테 - 순정
TTITLE9=아나스타지아 - 아나스타지아
TTITLE10=홍경민 - 흔들린 우정
EXTD=
EXTT0=
EXTT1=
EXTT2=
EXTT3=
EXTT4=
EXTT5=
EXTT6=
EXTT7=
EXTT8=
EXTT9=
EXTT10=
PLAYORDER=
